<?xml version="1.0" standalone="no"?>
<!DOCTYPE svg PUBLIC "-//W3C//DTD SVG 20010904//EN"
 "http://www.w3.org/TR/2001/REC-SVG-20010904/DTD/svg10.dtd">
<svg version="1.0" xmlns="http://www.w3.org/2000/svg"
 width="300.000000pt" height="300.000000pt" viewBox="0 0 300.000000 300.000000"
 preserveAspectRatio="xMidYMid meet">
<metadata>
Created by potrace 1.10, written by Peter Selinger 2001-2011
</metadata>
<g transform="translate(0.000000,300.000000) scale(0.100000,-0.100000)"
fill="#ffffff" stroke="none">
<path d="M1189 2410 c-27 -27 -49 -59 -49 -70 0 -12 -12 -26 -30 -35 -38 -20
-57 -49 -66 -102 -8 -51 -16 -59 -71 -66 -49 -6 -88 -32 -104 -69 -44 -105 42
-205 152 -175 24 6 27 3 38 -32 12 -42 57 -87 96 -97 38 -9 92 14 128 56 30
36 34 37 57 24 14 -7 32 -13 41 -14 25 0 70 40 85 75 9 23 22 34 43 38 34 7
55 38 46 68 -4 11 -20 36 -37 55 -34 39 -79 46 -103 17 -7 -10 -23 -29 -34
-43 -28 -37 -35 -19 -21 55 10 55 15 65 29 60 39 -16 128 -17 157 -2 52 27 77
62 77 109 0 39 -5 47 -59 96 -33 29 -72 60 -88 68 -42 23 -88 11 -126 -33 -31
-35 -32 -40 -27 -99 l5 -62 -28 10 c-16 5 -36 18 -45 28 -16 18 -15 21 28 67
l46 49 -24 31 c-40 50 -61 49 -116 -7z m87 -5 c19 -29 9 -49 -11 -22 -12 16
-14 14 -22 -19 -10 -46 -36 -65 -58 -43 -20 19 -10 49 16 49 11 0 22 7 24 15
3 8 7 22 10 30 7 22 22 18 41 -10z m216 -34 c13 -16 38 -36 55 -45 55 -28 57
-103 3 -131 -29 -15 -97 -20 -136 -9 -37 10 -71 113 -54 161 23 61 92 74 132
24z m-251 -138 c55 -33 82 -56 86 -72 5 -22 -32 -215 -58 -299 -20 -63 -101
-81 -150 -33 -62 63 -20 157 66 149 22 -3 47 -8 56 -12 12 -5 17 5 27 56 6 34
10 62 9 63 -64 40 -160 95 -161 93 -2 -2 -12 -48 -25 -103 -18 -83 -27 -105
-51 -127 -41 -38 -83 -37 -121 1 -49 50 -37 121 27 147 30 12 39 12 71 -1 20
-8 37 -14 38 -13 1 2 9 39 18 82 18 83 37 116 69 116 11 0 56 -21 99 -47z
m-46 -143 c62 -38 52 -63 -29 -74 l-49 -6 7 42 c11 67 18 71 71 38z m286 -30
c22 -13 52 -67 44 -80 -12 -19 -33 -10 -45 21 -16 38 -24 29 -39 -45 -6 -32
-16 -65 -22 -72 -25 -31 -99 -4 -99 35 0 33 31 63 60 59 26 -4 29 -1 35 31 11
58 28 71 66 51z"/>
<path d="M135 1725 c-25 -24 -25 -25 -25 -225 l0 -201 25 -25 c24 -24 30 -25
132 -23 76 1 114 6 134 18 25 14 29 14 47 -2 25 -23 74 -21 106 4 l26 21 38
-24 c70 -43 184 -24 230 39 l19 27 40 -42 c26 -27 49 -42 66 -43 15 -1 33 -2
40 -3 16 -3 47 12 73 35 20 19 21 19 45 1 66 -51 166 -49 229 5 l32 26 21 -27
c33 -40 85 -45 125 -11 30 25 32 31 32 91 0 41 4 63 10 59 5 -3 10 -33 10 -66
0 -53 3 -63 28 -85 22 -22 34 -25 67 -21 62 9 75 33 75 138 0 60 -5 99 -16
122 -21 45 -74 79 -121 79 -193 -2 -179 0 -207 -33 l-26 -30 -35 26 c-67 51
-158 52 -228 3 -27 -20 -29 -20 -49 -2 -11 11 -31 42 -43 70 -19 43 -29 53
-55 59 -59 13 -99 -17 -115 -89 -5 -23 -9 -27 -28 -21 -108 33 -163 27 -214
-26 l-30 -30 -17 25 c-20 31 -20 37 1 81 16 34 16 38 -1 70 -36 66 -112 69
-149 6 -22 -38 -21 -57 3 -90 18 -26 18 -29 3 -51 -10 -14 -17 -47 -19 -79 -1
-31 -2 -61 -3 -67 -2 -17 -103 -5 -118 14 -9 11 -13 57 -13 148 0 131 0 133
-26 153 -37 29 -89 27 -119 -4z m107 -186 l-3 -172 75 6 76 5 0 -44 0 -44
-122 0 -123 0 0 210 0 210 50 0 50 0 -3 -171z m297 157 c18 -21 9 -66 -14 -82
-29 -19 -69 2 -73 39 -4 36 13 57 48 57 15 0 33 -6 39 -14z m461 -96 c0 -49 1
-50 30 -50 28 0 30 -3 30 -35 0 -32 -2 -35 -30 -35 l-31 0 3 -57 c3 -52 5 -58
24 -56 16 2 23 -6 32 -33 10 -33 9 -36 -14 -45 -33 -12 -58 -11 -87 2 -34 16
-47 49 -47 124 0 58 -2 65 -20 65 -16 0 -20 7 -20 35 0 28 4 35 20 35 17 0 20
7 20 50 l0 50 45 0 45 0 0 -50z m-181 -55 c7 -4 6 -16 -5 -36 -12 -24 -19 -29
-37 -23 -36 12 -62 10 -62 -5 0 -8 18 -20 39 -28 61 -20 77 -40 74 -86 -4 -49
-37 -77 -100 -84 -46 -5 -118 17 -118 37 0 6 7 22 16 35 15 23 17 23 39 9 26
-17 66 -16 72 2 2 5 -19 20 -46 32 -119 55 -75 170 61 159 31 -3 61 -8 67 -12z
m486 1 c40 -17 64 -50 72 -100 l6 -36 -97 0 c-87 0 -97 -2 -94 -17 2 -10 15
-24 29 -32 23 -13 29 -12 59 3 28 13 40 14 62 5 37 -15 35 -35 -4 -59 -98 -59
-208 -23 -238 77 -12 38 -11 46 11 89 38 76 114 103 194 70z m225 -8 c0 -6 11
-3 25 6 46 30 131 12 155 -33 5 -11 10 -65 10 -120 l0 -101 -45 0 -45 0 0 84
c0 64 -4 88 -16 100 -20 21 -43 20 -66 -1 -15 -13 -18 -31 -18 -100 l0 -83
-45 0 -45 0 0 133 0 132 45 -3 c25 -2 45 -9 45 -14z m-985 -118 l0 -130 -47 0
-48 0 0 130 0 130 48 0 47 0 0 -130z m315 41 c0 -5 3 -18 7 -28 6 -17 5 -17
-15 1 -26 22 -28 36 -7 36 8 0 15 -4 15 -9z m-250 -62 c0 -10 -7 -19 -15 -19
-13 0 -14 12 -6 48 3 12 21 -13 21 -29z"/>
<path d="M1202 1488 c-22 -22 -13 -28 38 -28 28 0 50 4 50 8 0 16 -25 32 -50
32 -14 0 -31 -5 -38 -12z"/>
</g>
</svg>
